# xmcd CD database file
# Copyright (C) 1993-1998 Ti Kan
#
# Track frame offsets:
#	150
#	17655
#	33193
#	44453
#	58998
#	70038
#	84080
#	95455
#	107263
#	117085
#	129518
#	138770
#	154740
#	164858
#	175923
#	186838
#	197755
#	207340
#	222853
#	233535
#
# Disc length: 3299 seconds
#
# Revision: 1
# Processed by: cddbd v1.4b41PL1 Copyright (c) Steve Scherf et al.
# Submitted via: NotifyCDPlayer(CDDB) 1.51.3
#
DISCID=0b0ce114
DTITLE=Jimmy Witherspoon - Cry The Blues
DYEAR=1900
DGENRE=
TTITLE0=Ain´t Nobody´s Business
TTITLE1=No Rollin´ Blues
TTITLE2=Big Fine Girl
TTITLE3=Failing By Degrees
TTITLE4=New Orleans Woman
TTITLE5=I Done Found Out
TTITLE6=Sweet Lovin´ Baby
TTITLE7=Fickle Woman
TTITLE8=Have A Ball
TTITLE9=Good Jumpin´
TTITLE10=Tell Him I Was Flyin´ (Part One)
TTITLE11=In Blues
TTITLE12=Losers Blues
TTITLE13=Please Send Me Someone To Love
TTITLE14=Life´s Highway
TTITLE15=Cry The Blues
TTITLE16=Out Blues
TTITLE17=Since I Fell For You
TTITLE18=Everything
TTITLE19=Tell Him I Was Flyin´ (Part Two)
EXTD=
EXTT0=
EXTT1=
EXTT2=
EXTT3=
EXTT4=
EXTT5=
EXTT6=
EXTT7=
EXTT8=
EXTT9=
EXTT10=
EXTT11=
EXTT12=
EXTT13=
EXTT14=
EXTT15=
EXTT16=
EXTT17=
EXTT18=
EXTT19=
PLAYORDER=
